<?xml version="1.0" standalone="no"?>
<!DOCTYPE svg PUBLIC "-//W3C//DTD SVG 20010904//EN"
 "http://www.w3.org/TR/2001/REC-SVG-20010904/DTD/svg10.dtd">
<svg version="1.0" xmlns="http://www.w3.org/2000/svg"
 width="1280.000000pt" height="904.000000pt" viewBox="0 0 1280.000000 904.000000"
 preserveAspectRatio="xMidYMid meet">
<g transform="translate(0.000000,904.000000) scale(0.100000,-0.100000)"
fill="#009688" stroke="none">
<path d="M927 8958 c32 -46 102 -139 155 -208 54 -68 98 -131 98 -140 0 -19
-33 -73 -77 -127 -20 -24 -36 -57 -39 -80 -9 -57 -64 -200 -85 -219 -23 -20
-25 -42 -5 -50 32 -12 102 32 147 94 24 34 49 60 54 58 19 -5 74 -130 90 -205
21 -97 71 -250 91 -279 8 -12 24 -22 34 -22 34 0 39 29 19 120 -27 125 -24
161 5 75 13 -38 34 -102 45 -142 22 -73 39 -91 75 -77 23 9 21 63 -9 200 -26
120 -31 184 -16 184 5 0 23 -24 40 -52 116 -196 126 -208 152 -208 50 0 29 92
-50 224 -28 46 -51 93 -51 104 0 26 26 35 53 18 12 -8 36 -17 52 -20 17 -4 50
-22 75 -42 29 -23 52 -34 69 -32 60 7 22 63 -98 148 -78 55 -87 68 -116 172
-31 113 -51 148 -145 252 -45 50 -118 145 -163 213 l-82 123 -188 0 -187 0 57
-82z"/>
<path d="M2226 8948 c37 -260 27 -505 -32 -793 -13 -66 -27 -163 -30 -216 l-7
-96 51 -56 c37 -41 56 -72 68 -114 9 -32 23 -68 31 -79 8 -12 23 -55 35 -95
11 -41 31 -94 43 -119 13 -25 37 -75 54 -112 32 -69 59 -90 86 -68 22 19 19
48 -25 207 -22 81 -40 148 -40 151 0 2 7 1 16 -2 9 -3 32 3 50 15 26 16 35 29
40 60 5 29 18 49 51 80 58 53 113 153 113 205 0 28 -17 71 -61 154 -56 105
-62 122 -66 191 -3 42 0 137 6 210 12 133 57 503 66 547 l5 22 -233 0 -234 0
13 -92z"/>
<path d="M2835 9003 c-13 -85 -24 -161 -31 -208 -3 -27 -17 -79 -32 -115 -22
-56 -25 -81 -26 -180 -1 -136 13 -338 25 -362 5 -9 29 -26 54 -38 85 -41 106
-94 81 -200 -23 -96 -21 -185 4 -210 25 -25 62 -26 83 -2 41 46 59 112 62 231
3 146 9 168 45 176 15 3 37 15 50 27 20 19 22 28 17 78 -6 57 -6 57 27 73 27
12 34 23 38 51 5 45 -7 77 -32 83 -18 5 -18 7 -5 26 22 31 18 74 -7 100 -17
17 -22 32 -20 58 5 54 -22 80 -86 87 -29 2 -52 7 -52 10 0 26 49 158 74 202
18 30 45 76 60 103 l27 47 -175 0 -175 0 -6 -37z"/>
<path d="M3486 9003 c-3 -21 -4 -162 -2 -313 2 -273 3 -276 39 -450 44 -209
46 -278 13 -358 -15 -36 -27 -88 -31 -142 -4 -47 -16 -116 -26 -155 -26 -99
-29 -178 -7 -183 12 -2 20 8 28 40 16 57 38 120 50 138 17 27 19 5 5 -50 -7
-30 -16 -98 -20 -151 -6 -81 -4 -97 10 -109 24 -20 33 -3 51 99 20 118 37 177
49 171 5 -3 8 -76 6 -167 -3 -159 -2 -163 18 -163 11 0 25 9 30 19 12 22 31
173 31 248 0 28 4 54 9 57 11 7 21 -69 21 -170 0 -83 9 -106 34 -85 16 14 36
136 36 224 0 55 5 83 25 175 8 32 21 28 82 -28 55 -51 97 -70 114 -53 8 8 -70
117 -221 308 -30 38 -41 61 -46 103 -11 92 -9 424 4 468 7 22 19 106 27 185
13 121 14 162 4 262 l-13 117 -157 0 -157 0 -6 -37z"/>
<path d="M4065 8813 c-4 -126 -11 -236 -16 -245 -6 -10 -21 -69 -34 -130 -17
-74 -31 -117 -43 -126 -30 -21 -82 -74 -82 -83 0 -5 -16 -29 -35 -55 -19 -25
-35 -52 -35 -60 0 -42 71 -13 100 41 13 25 85 75 106 75 6 0 18 -6 28 -13 18
-13 17 -16 -13 -73 -17 -32 -47 -97 -67 -143 -38 -88 -38 -116 2 -116 14 0 36
33 86 130 62 122 87 152 103 125 4 -7 -1 -84 -11 -172 -15 -138 -16 -161 -3
-169 23 -14 37 -11 50 12 13 25 49 237 49 292 0 31 3 38 18 35 20 -4 38 -80
49 -220 7 -86 10 -93 30 -96 36 -5 43 33 46 252 l2 201 29 42 c15 23 35 44 44
48 9 3 38 -6 65 -20 56 -29 103 -32 135 -9 18 13 21 19 11 30 -6 8 -21 14 -32
14 -17 0 -58 37 -140 130 -12 14 -38 38 -57 52 l-35 27 2 93 c3 101 21 312 29
341 5 16 -8 17 -184 17 l-190 0 -7 -227z"/>
<path d="M4650 9002 c0 -70 21 -256 41 -365 18 -98 19 -134 14 -375 -4 -147
-11 -282 -17 -300 -13 -44 -57 -93 -116 -131 -47 -30 -143 -137 -183 -205 -12
-20 -30 -41 -40 -47 -23 -12 -25 -47 -4 -55 30 -12 66 8 134 71 38 36 74 65
80 65 7 0 -3 -27 -23 -62 -19 -35 -45 -105 -58 -156 -23 -92 -23 -94 -4 -108
31 -22 57 3 87 82 21 57 65 144 73 144 1 0 0 -56 -2 -125 -4 -105 -2 -129 12
-151 22 -32 57 -29 67 6 4 14 7 58 8 99 1 41 9 98 18 128 14 44 21 53 37 51
26 -4 48 -67 67 -186 9 -63 17 -86 31 -93 14 -8 24 -7 35 3 13 10 14 27 9 93
-3 44 -12 106 -20 138 -12 53 -12 57 5 57 23 0 78 -70 108 -137 26 -57 40 -68
66 -49 17 12 17 17 -4 82 -13 38 -34 90 -48 115 -19 37 -25 63 -27 125 -2 44
-6 131 -11 194 -8 126 7 305 50 595 13 88 26 192 30 230 9 100 25 245 31 278
l6 27 -226 0 -226 0 0 -38z"/>
<path d="M5320 9038 c1 -23 56 -283 80 -373 26 -98 33 -151 40 -290 5 -93 12
-209 16 -256 9 -118 4 -132 -53 -157 -27 -11 -67 -25 -90 -31 -25 -7 -51 -23
-65 -40 -33 -41 -141 -119 -180 -129 -39 -10 -43 -31 -8 -49 36 -18 77 -16
147 9 41 15 66 19 72 13 13 -14 -11 -145 -39 -215 -37 -91 -70 -212 -70 -257
0 -34 4 -43 21 -48 28 -9 34 -2 72 91 18 43 38 88 45 99 19 32 5 -34 -29 -138
-35 -104 -36 -123 -8 -138 33 -17 53 11 117 167 78 188 87 188 87 -8 0 -151 0
-153 23 -156 33 -5 53 51 64 188 5 63 11 121 13 128 7 18 45 15 52 -5 3 -10
16 -29 29 -43 12 -14 32 -51 44 -83 24 -63 50 -86 71 -61 15 19 5 72 -35 179
-14 39 -26 78 -26 87 0 10 14 60 30 111 34 107 37 161 14 273 -17 81 -16 309
2 922 l6 212 -221 0 c-121 0 -221 -1 -221 -2z"/>
<path d="M5930 9032 c0 -4 11 -46 24 -92 13 -47 29 -139 35 -205 15 -157 48
-301 132 -575 82 -268 95 -325 110 -495 l12 -130 -30 -48 c-17 -26 -42 -78
-55 -114 -28 -81 -88 -148 -168 -191 -218 -116 -249 -141 -220 -177 18 -22 36
-19 109 21 85 47 210 96 228 90 27 -11 10 -38 -89 -138 -126 -128 -198 -214
-198 -237 0 -22 19 -41 40 -41 10 0 50 35 91 78 101 106 228 217 248 217 32 0
21 -38 -36 -128 -33 -51 -65 -106 -72 -122 -6 -17 -34 -64 -61 -105 -38 -57
-47 -77 -39 -91 30 -56 65 -36 150 86 41 58 89 134 107 168 38 71 79 114 95
98 12 -12 -40 -158 -104 -289 -46 -93 -48 -125 -8 -130 49 -6 122 103 199 294
35 88 157 304 172 304 4 0 12 -26 18 -57 27 -134 56 -173 128 -173 54 0 57 19
18 118 -28 69 -36 104 -36 152 0 34 -9 110 -21 169 -16 82 -28 118 -54 158
-38 58 -42 71 -85 303 -39 217 -48 282 -60 485 -15 244 -28 351 -61 515 -16
79 -29 167 -29 195 0 27 -3 60 -6 73 l-6 22 -239 0 c-132 0 -239 -4 -239 -8z"/>
<path d="M6810 9030 c0 -6 14 -117 31 -248 21 -166 31 -285 32 -397 l2 -160
-62 -115 c-47 -85 -63 -125 -63 -154 0 -52 55 -152 113 -205 33 -31 46 -51 51
-80 5 -31 14 -44 40 -60 20 -13 41 -19 51 -15 14 6 16 3 12 -12 -43 -147 -78
-291 -75 -311 2 -14 11 -31 20 -37 24 -15 55 16 85 84 13 30 34 75 47 100 13
25 32 74 42 110 9 36 26 83 37 104 10 22 26 61 34 88 9 32 32 68 65 105 l51
56 -6 93 c-4 50 -15 136 -27 190 -65 317 -75 576 -34 832 l7 42 -227 0 c-146
0 -226 -4 -226 -10z"/>
<path d="M7405 8973 c3 -38 11 -93 17 -123 7 -33 12 -205 13 -430 l2 -375 37
-168 c43 -202 46 -278 12 -368 -13 -35 -27 -100 -31 -144 -3 -44 -15 -114 -25
-155 -25 -102 -31 -152 -21 -169 17 -27 39 -3 51 56 12 56 47 139 56 131 2 -2
-3 -36 -10 -74 -8 -38 -16 -109 -18 -159 -3 -86 -2 -90 19 -93 25 -4 22 -12
49 138 35 196 50 187 49 -27 0 -161 1 -168 20 -168 30 0 45 60 52 203 5 93 9
122 20 122 10 0 13 -27 13 -129 0 -102 3 -130 14 -134 32 -13 44 31 56 198 9
133 26 225 42 225 6 0 36 -22 67 -49 61 -53 88 -65 111 -51 12 8 11 13 -11 37
-14 15 -34 42 -44 58 -10 17 -31 46 -47 65 -15 19 -53 66 -83 104 -31 37 -61
78 -67 89 -6 12 -14 107 -19 217 -6 168 -5 210 11 305 33 193 44 352 31 439
-17 115 -14 147 19 217 16 36 34 97 40 139 6 41 13 90 16 108 l5 32 -226 0
-227 0 7 -67z"/>
<path d="M8020 9023 c0 -10 4 -45 10 -78 29 -183 64 -592 54 -629 -3 -12 -33
-43 -65 -69 -32 -26 -59 -54 -59 -61 0 -20 -86 -96 -109 -96 -10 0 -24 -6 -30
-14 -16 -19 8 -36 57 -43 31 -4 49 1 85 22 56 32 75 28 113 -27 l29 -41 5
-213 c4 -182 7 -216 22 -230 32 -32 45 -11 52 83 10 125 26 210 42 224 18 14
17 15 38 -141 10 -69 21 -141 27 -161 11 -42 35 -57 58 -35 13 14 13 33 -3
172 -18 158 -16 184 17 171 7 -3 41 -61 75 -130 34 -69 68 -127 76 -130 8 -3
22 0 33 8 15 11 16 17 6 42 -66 160 -82 195 -95 216 -23 34 -25 58 -7 70 28
18 67 -2 132 -68 35 -36 69 -65 76 -65 21 0 23 29 5 59 -64 99 -94 138 -117
150 -28 15 -50 67 -63 151 -3 25 -14 68 -24 95 -24 65 -36 463 -21 637 6 64 8
124 5 132 -5 14 -34 16 -215 16 -192 0 -209 -1 -209 -17z"/>
<path d="M8675 8983 c-12 -103 -26 -175 -45 -223 -29 -72 -41 -186 -30 -277 5
-43 12 -118 16 -168 3 -49 11 -96 17 -103 6 -8 32 -24 59 -38 73 -37 96 -96
73 -184 -8 -30 -15 -90 -15 -132 0 -72 2 -79 26 -94 39 -26 72 -9 103 51 21
43 26 70 32 190 4 77 8 143 8 147 1 4 20 16 44 26 57 26 71 44 64 90 -3 20 -8
45 -12 55 -5 11 -2 17 8 17 8 0 26 9 41 21 21 17 26 29 26 65 0 38 -4 46 -25
56 -29 13 -31 21 -10 38 20 17 10 79 -16 102 -13 11 -19 29 -19 61 0 55 -15
68 -80 75 -31 3 -50 9 -50 17 0 27 43 150 64 184 13 20 28 46 35 59 l12 22
-160 0 -160 0 -6 -57z"/>
<path d="M9231 8963 c-6 -43 -16 -161 -21 -263 -13 -226 -30 -359 -76 -600
-31 -163 -39 -191 -70 -238 -28 -42 -39 -76 -59 -175 -14 -71 -22 -138 -19
-158 6 -34 -35 -177 -58 -206 -5 -7 -8 -22 -6 -35 2 -19 10 -23 45 -26 34 -3
47 2 72 25 26 23 34 43 49 111 9 46 21 84 25 85 12 3 143 -216 162 -271 32
-90 116 -251 149 -286 21 -23 43 -36 59 -36 42 0 42 30 -2 122 -80 165 -128
308 -105 308 22 0 50 -32 85 -98 40 -78 140 -225 181 -269 23 -25 57 -30 76
-11 19 19 15 35 -27 96 -21 31 -52 85 -70 119 -17 34 -53 97 -81 139 -27 42
-50 80 -50 84 0 4 7 13 15 20 21 18 36 6 203 -159 137 -135 145 -142 165 -128
12 8 23 23 25 33 3 21 -99 140 -235 276 -70 70 -76 79 -62 93 14 14 22 13 85
-11 38 -14 101 -43 140 -65 77 -42 105 -47 124 -24 10 12 9 19 -2 37 -14 22
-51 45 -223 139 -88 49 -134 99 -164 180 -12 35 -39 90 -58 121 l-34 58 15
140 c18 159 34 231 111 480 60 196 102 353 111 423 l7 47 -235 0 -236 0 -11
-77z"/>
<path d="M10116 8963 c-21 -258 0 -540 59 -773 27 -106 50 -273 41 -297 -4 -8
-1 -98 5 -199 l12 -183 -26 -44 c-15 -24 -43 -59 -64 -77 -79 -67 -92 -82
-151 -172 -33 -51 -70 -102 -81 -114 -35 -35 -23 -64 27 -64 9 0 52 37 96 83
43 45 81 77 83 70 2 -6 -7 -34 -21 -61 -27 -54 -59 -194 -54 -239 2 -19 9 -29
24 -31 30 -4 50 25 69 98 9 36 28 83 41 105 l24 40 1 -85 c1 -170 23 -235 70
-209 17 8 19 23 20 117 1 127 15 186 46 190 18 3 24 -7 42 -60 12 -35 29 -95
39 -133 19 -77 41 -100 68 -73 15 15 16 25 4 95 -7 43 -20 104 -30 136 -17 53
-17 57 -1 57 23 0 84 -65 110 -116 30 -61 48 -76 73 -63 15 8 18 17 13 37 -9
39 -61 149 -85 179 -14 18 -20 41 -20 76 0 28 -10 100 -21 161 -20 101 -21
131 -15 331 3 121 11 265 16 320 14 143 32 816 25 903 l-7 72 -212 0 -213 0
-7 -77z"/>
<path d="M11476 8937 c-110 -189 -289 -450 -368 -533 -83 -88 -118 -148 -138
-234 -25 -109 -36 -126 -129 -194 -92 -67 -125 -105 -115 -130 9 -23 36 -20
75 9 19 13 50 32 69 41 19 9 48 22 63 30 36 18 52 18 67 -1 10 -12 3 -31 -43
-108 -64 -107 -95 -192 -80 -216 16 -26 45 -19 68 16 11 18 41 65 67 105 25
40 52 85 59 100 9 21 15 25 25 17 15 -12 14 -19 -22 -192 -31 -145 -30 -181 8
-185 34 -4 50 20 72 108 9 36 25 90 36 120 16 46 19 50 20 25 0 -16 -8 -67
-17 -113 -19 -89 -13 -117 23 -117 27 0 56 60 88 178 60 221 100 327 126 327
4 0 26 -25 50 -56 47 -62 92 -94 133 -94 33 0 35 17 6 55 -26 32 -79 178 -79
217 0 15 -15 44 -35 69 -20 23 -47 61 -61 85 -31 52 -29 56 81 194 41 52 102
134 135 182 33 48 97 123 142 166 46 44 119 114 163 155 l80 77 -255 0 -255 0
-59 -103z"/>
<path d="M2 8244 l3 -219 145 -72 c80 -40 157 -85 172 -100 15 -15 66 -56 114
-92 81 -61 89 -70 100 -114 7 -27 24 -65 38 -86 14 -20 26 -42 26 -48 0 -18
50 -73 66 -73 26 0 20 59 -12 120 -55 102 -2 211 55 114 12 -20 56 -74 99
-120 62 -69 82 -84 102 -82 41 5 36 37 -15 97 -25 29 -59 72 -75 95 -15 23
-35 48 -44 55 -20 17 -21 50 -1 57 9 4 43 -11 78 -33 164 -105 211 -133 223
-133 19 0 36 28 29 49 -6 21 -190 150 -247 174 -43 18 -52 31 -34 46 15 13
143 -21 248 -65 64 -27 88 -26 88 4 0 31 -39 58 -175 122 -235 110 -232 109
-260 155 -14 24 -25 52 -25 63 0 18 51 72 69 72 15 0 41 60 41 94 0 42 -17 47
-46 15 -28 -31 -88 -59 -126 -59 -18 0 -66 -16 -106 -35 l-73 -36 -133 69
c-73 39 -170 93 -215 122 -46 28 -89 54 -97 57 -12 4 -14 -28 -12 -213z"/>
<path d="M12725 8249 c-185 -122 -550 -329 -581 -329 -8 0 -41 14 -74 30 -33
17 -74 30 -92 30 -44 1 -113 33 -141 66 -27 31 -47 25 -47 -14 1 -45 23 -82
65 -111 49 -33 55 -61 24 -118 -26 -47 -21 -44 -269 -161 -131 -62 -173 -93
-168 -120 5 -27 38 -25 113 6 91 37 200 66 219 59 27 -10 18 -26 -26 -48 -68
-34 -238 -150 -248 -170 -11 -20 -3 -48 14 -50 25 -3 39 4 162 82 125 77 170
93 168 57 -1 -9 -15 -34 -33 -55 -165 -203 -163 -201 -136 -223 22 -18 50 -4
91 48 21 26 58 70 83 98 25 29 53 62 62 74 13 20 18 21 37 11 32 -17 31 -94
-3 -157 -26 -49 -33 -98 -14 -109 14 -9 44 20 64 62 9 19 27 50 41 70 13 19
26 51 30 72 8 44 31 71 104 121 30 21 71 54 90 73 33 33 371 210 498 260 l42
17 0 235 c0 129 -3 235 -7 234 -5 0 -35 -18 -68 -40z"/>
<path d="M823 7301 c-48 -32 -94 -70 -102 -85 -16 -28 -69 -48 -166 -61 -27
-4 -72 -16 -100 -26 -43 -16 -78 -19 -252 -19 l-203 0 0 -190 0 -190 25 0 c14
0 102 5 195 11 120 7 175 7 189 -1 11 -5 34 -31 51 -55 17 -25 50 -57 72 -71
55 -35 86 -71 98 -116 13 -44 36 -50 50 -12 16 40 12 91 -10 126 -33 54 -27
82 24 118 l45 30 210 0 c210 0 256 6 268 36 10 27 -12 35 -123 45 -140 12
-208 28 -212 52 -3 14 4 17 36 17 52 0 249 28 289 41 37 12 50 37 29 57 -13
14 -33 13 -177 -2 -146 -15 -164 -15 -178 -1 -21 21 -13 27 129 94 67 32 128
65 136 73 17 16 10 44 -12 52 -15 6 -174 -56 -257 -100 -59 -32 -77 -27 -77
22 0 32 8 44 70 103 39 36 70 74 70 83 0 33 -31 25 -117 -31z"/>
<path d="M11664 7045 c-8 -19 14 -48 68 -89 25 -19 53 -51 62 -71 33 -68 -1
-91 -78 -52 -102 53 -217 98 -239 95 -27 -4 -35 -39 -12 -58 8 -7 70 -39 137
-71 68 -32 124 -63 127 -70 2 -7 -3 -17 -12 -24 -16 -12 -20 -11 -246 15 -90
10 -111 4 -111 -31 0 -10 9 -23 19 -28 26 -14 208 -41 276 -41 41 0 57 -4 62
-15 3 -9 3 -19 -1 -22 -12 -12 -131 -33 -224 -40 -97 -6 -126 -20 -102 -48 24
-29 90 -37 284 -33 l191 3 42 -29 c56 -37 61 -56 28 -113 -22 -36 -26 -54 -22
-89 8 -76 45 -92 61 -28 11 41 46 83 98 114 26 16 54 42 62 57 8 15 26 39 40
52 25 24 27 24 178 17 84 -3 216 -13 293 -21 77 -8 143 -15 148 -15 4 0 7 93
7 208 l0 207 -107 -7 c-169 -11 -511 6 -613 31 -47 11 -105 25 -129 31 -33 8
-54 22 -79 51 -19 22 -51 49 -71 60 -20 11 -51 31 -70 44 -39 28 -59 31 -67
10z"/>
<path d="M2035 6115 c-33 -14 -79 -38 -103 -55 -35 -25 -52 -30 -100 -30 -31
0 -104 -9 -162 -21 -92 -17 -128 -19 -285 -14 -99 4 -261 13 -360 21 -99 8
-370 17 -602 21 l-423 6 0 -221 0 -222 301 0 c326 0 418 10 629 65 83 22 130
27 372 37 152 6 289 7 305 4 16 -5 63 -43 113 -94 47 -48 120 -109 163 -137
44 -28 94 -63 114 -79 31 -26 36 -28 50 -13 27 27 7 65 -75 143 -42 40 -74 76
-70 79 3 4 30 -6 59 -21 44 -22 203 -63 246 -64 23 0 44 30 33 49 -10 20 -78
51 -109 51 -16 0 -106 43 -123 58 -4 4 40 8 98 9 162 4 210 24 183 75 -11 19
-17 20 -103 15 -58 -4 -111 -1 -146 7 -48 11 -55 16 -55 36 0 25 8 29 225 92
49 14 65 42 36 63 -18 13 -123 -1 -222 -30 -64 -18 -64 -18 -64 -1 0 21 68 83
121 111 59 31 76 50 59 70 -17 20 -35 19 -105 -10z"/>
<path d="M10815 6111 c-11 -19 13 -39 58 -46 48 -8 137 -44 137 -55 0 -4 -26
-1 -59 6 -32 8 -105 15 -162 16 -98 3 -104 2 -104 -17 0 -18 14 -23 115 -42
156 -30 162 -32 158 -45 -3 -7 -55 -10 -165 -9 -171 2 -198 -5 -154 -40 23
-19 79 -28 214 -33 81 -3 108 -9 95 -21 -3 -3 -62 -8 -131 -12 -113 -5 -127
-8 -127 -24 0 -23 63 -36 230 -49 115 -8 200 -24 200 -36 0 -2 -25 -34 -55
-69 -35 -41 -55 -75 -55 -90 0 -43 3 -42 233 138 65 51 131 96 145 100 54 16
412 17 497 2 156 -29 337 -44 415 -35 123 15 187 12 228 -9 51 -26 134 -48
210 -56 l62 -7 0 221 0 221 -26 0 c-15 0 -74 -7 -133 -16 -79 -12 -197 -16
-466 -18 l-360 -2 -172 -37 c-205 -44 -250 -46 -340 -11 -42 15 -105 29 -163
34 -52 5 -116 16 -141 24 -67 21 -175 31 -184 17z"/>
<path d="M11830 5691 c-17 -33 -12 -100 11 -132 30 -43 22 -76 -29 -112 l-42
-31 -189 3 c-147 1 -197 -1 -224 -12 -77 -33 -50 -67 52 -68 78 0 208 -22 223
-37 19 -19 -1 -29 -74 -35 -100 -8 -208 -25 -240 -38 -30 -12 -37 -39 -14 -58
14 -12 47 -9 256 19 52 8 68 7 79 -5 21 -21 10 -30 -132 -101 -106 -52 -122
-64 -122 -85 0 -18 6 -25 24 -27 26 -4 187 64 257 108 47 29 71 -19 40 -79 -8
-15 -32 -41 -53 -56 -47 -36 -62 -55 -63 -77 0 -28 41 -22 80 11 19 15 50 36
68 45 18 9 42 32 55 51 18 29 32 37 87 50 36 9 97 26 135 37 66 20 92 22 428
22 l357 1 0 209 0 209 -47 -7 c-160 -22 -407 -47 -528 -52 l-140 -6 -39 52
c-22 29 -56 62 -75 75 -48 30 -76 62 -95 108 -17 41 -30 47 -46 18z"/>
<path d="M1632 5417 c-20 -21 -39 -54 -118 -200 -48 -88 -112 -146 -197 -176
-36 -12 -87 -36 -112 -52 -53 -34 -72 -35 -240 -14 -136 17 -191 30 -466 114
-179 54 -367 101 -462 114 l-37 6 0 -234 0 -235 23 -5 c66 -15 175 -26 377
-40 270 -18 329 -26 573 -71 209 -39 224 -43 272 -80 40 -30 236 -74 332 -74
49 0 84 -8 150 -35 99 -39 113 -35 113 25 0 71 -30 91 -172 120 -32 6 -58 14
-58 18 0 4 12 14 28 23 15 9 64 39 110 67 46 28 116 63 155 78 181 68 311 154
305 203 -5 39 -32 38 -127 -7 -136 -65 -280 -117 -291 -106 -17 17 18 53 83
86 34 17 89 50 122 74 33 24 85 61 115 82 57 39 72 70 50 98 -19 22 -38 17
-104 -25 -34 -21 -90 -53 -124 -70 -35 -17 -92 -52 -128 -76 -70 -48 -98 -55
-108 -28 -5 12 10 34 52 77 32 34 73 79 92 101 18 22 56 60 84 84 69 59 80 76
66 101 -26 49 -97 3 -292 -192 -49 -49 -91 -88 -96 -88 -4 0 -13 4 -21 9 -11
7 -7 24 19 92 17 46 44 104 60 130 34 56 43 83 35 109 -8 26 -36 25 -63 -3z"/>
<path d="M12225 4920 c-27 -5 -84 -9 -125 -9 -89 -1 -109 -12 -139 -76 -16
-35 -32 -50 -65 -67 -43 -21 -45 -21 -143 -4 -124 20 -163 20 -191 0 -18 -12
-22 -24 -20 -52 3 -34 8 -39 62 -66 52 -27 70 -30 170 -32 161 -4 170 -7 188
-53 23 -57 55 -75 110 -61 38 11 44 10 53 -6 22 -39 55 -64 85 -64 30 0 70 29
70 52 0 6 7 4 18 -5 25 -23 78 -21 102 3 13 13 33 20 56 20 19 0 44 4 54 10
21 11 40 60 40 101 0 16 2 29 4 29 22 0 153 -48 194 -72 l53 -30 -3 154 -3
153 -90 13 c-49 7 -124 24 -165 39 -82 29 -219 39 -315 23z"/>
<path d="M11052 4598 c-17 -17 -15 -54 4 -93 18 -38 60 -59 139 -69 49 -7 84
-21 75 -29 -29 -26 -231 -142 -272 -156 -135 -47 -283 -130 -313 -175 -22 -33
-12 -66 21 -66 13 0 59 18 101 40 83 42 255 110 279 110 17 0 18 -21 2 -43 -7
-9 -45 -33 -85 -54 -98 -52 -269 -173 -285 -201 -9 -17 -9 -28 -2 -40 19 -30
51 -25 114 18 34 23 82 51 107 62 25 11 86 47 136 79 78 52 92 58 105 46 8 -9
11 -23 8 -34 -4 -11 -71 -86 -151 -166 -80 -80 -145 -152 -145 -160 0 -19 21
-37 44 -37 12 0 59 34 107 78 47 42 99 89 115 103 16 15 48 47 72 73 43 47 68
57 78 31 7 -18 -48 -160 -87 -225 -36 -60 -42 -82 -25 -105 11 -16 18 -17 37
-8 22 10 38 33 141 218 57 102 87 128 200 176 54 23 109 50 122 60 28 22 65
24 204 8 127 -13 212 -34 477 -114 220 -66 369 -105 405 -105 19 0 20 8 20
235 0 184 -3 235 -13 235 -7 0 -48 4 -92 10 -44 5 -163 14 -265 20 -220 13
-267 19 -515 66 -200 38 -228 46 -287 86 -43 29 -224 68 -320 68 -49 0 -82 8
-148 35 -98 40 -92 39 -108 23z"/>
<path d="M627 4562 c-10 -10 -17 -25 -17 -32 0 -10 -5 -9 -18 3 -26 24 -88 22
-109 -3 -12 -14 -30 -20 -58 -20 -22 0 -45 -4 -51 -8 -19 -13 -34 -50 -34 -86
0 -19 -3 -37 -7 -39 -10 -6 -162 39 -178 53 -6 5 -44 27 -84 49 l-71 40 2
-172 3 -171 134 -18 c73 -10 167 -29 209 -44 86 -29 184 -34 392 -20 137 10
151 17 192 94 9 17 32 41 50 52 35 22 35 22 210 0 87 -11 100 -11 123 4 36 24
43 62 15 91 -37 39 -103 56 -255 65 -77 5 -141 9 -142 9 -1 1 -4 14 -8 30 -3
16 -17 42 -31 56 -26 28 -32 28 -106 10 -21 -5 -27 -1 -38 25 -7 17 -21 35
-31 40 -29 16 -75 12 -92 -8z"/>
<path d="M1247 4155 c-42 -21 -84 -54 -142 -111 -46 -44 -61 -52 -117 -63 -34
-7 -92 -22 -128 -34 -62 -20 -84 -21 -446 -22 -303 -1 -385 -3 -398 -14 -14
-12 -16 -41 -16 -208 0 -157 3 -195 14 -199 8 -3 63 2 123 10 219 32 391 48
527 49 l140 2 37 -50 c21 -27 54 -57 74 -67 39 -20 95 -90 95 -119 0 -50 46
-26 56 28 5 28 1 48 -20 89 -15 30 -25 62 -22 71 4 10 25 31 48 47 l41 30 206
0 c216 1 251 7 251 45 0 24 -19 31 -83 31 -75 0 -229 27 -238 42 -13 20 0 28
48 28 43 0 106 9 231 32 58 11 80 34 59 63 -12 15 -22 16 -113 5 -54 -6 -124
-15 -154 -20 -63 -9 -80 -5 -80 20 0 14 33 35 124 80 133 66 150 78 140 104
-8 22 -61 21 -99 -2 -17 -10 -56 -28 -88 -40 -32 -12 -71 -32 -87 -43 -31 -23
-56 -20 -67 7 -9 25 32 95 72 122 18 13 41 35 50 49 14 21 15 27 3 39 -11 11
-18 11 -41 -1z"/>
<path d="M10830 3620 c-16 -30 8 -68 85 -135 84 -74 86 -94 4 -55 -78 37 -242
68 -264 50 -36 -29 -3 -65 81 -86 44 -12 154 -60 154 -68 0 0 -51 -2 -113 -3
-61 -2 -125 -6 -141 -11 -38 -10 -55 -36 -40 -59 10 -15 25 -18 105 -16 121 4
194 -14 194 -46 0 -25 -42 -45 -141 -70 -130 -32 -125 -30 -122 -59 2 -22 9
-28 33 -30 27 -2 176 25 233 43 18 6 22 4 22 -12 0 -26 -42 -64 -115 -105 -48
-27 -60 -39 -60 -58 0 -22 4 -25 32 -24 38 2 166 59 189 85 13 15 31 19 78 19
34 0 108 9 166 21 93 18 126 20 290 14 102 -3 269 -13 371 -20 103 -8 354 -18
558 -21 l371 -7 0 221 0 222 -261 0 c-283 0 -385 -11 -589 -65 -83 -22 -129
-27 -377 -36 l-282 -11 -45 26 c-25 15 -65 50 -88 79 -44 54 -152 139 -225
176 -23 11 -47 30 -53 41 -14 26 -36 26 -50 0z"/>
<path d="M1814 3462 c-18 -15 -70 -56 -118 -92 -47 -36 -107 -81 -132 -101
-57 -45 -82 -50 -304 -54 -124 -3 -198 0 -255 10 -166 30 -358 46 -431 35
-116 -16 -171 -13 -229 16 -52 25 -149 46 -278 59 l-67 7 0 -231 0 -231 58 6
c31 3 107 12 167 21 80 11 209 16 475 17 l365 2 172 37 c205 44 259 46 348 12
36 -13 100 -27 143 -31 42 -3 109 -14 147 -24 39 -10 96 -22 127 -26 49 -5 59
-4 64 10 9 23 5 25 -73 45 -37 10 -78 23 -91 30 -39 21 -23 29 31 16 28 -8 99
-15 157 -17 101 -3 105 -2 108 19 3 19 -3 22 -45 28 -26 4 -87 16 -135 26 -48
10 -90 19 -94 19 -3 0 -4 5 -2 12 3 8 54 11 169 12 156 1 164 2 164 21 0 27
-61 42 -207 50 -65 4 -118 10 -118 15 0 9 102 20 191 20 71 0 95 13 65 35 -20
15 -147 35 -223 35 -76 0 -184 21 -190 37 -3 7 15 35 39 61 53 56 72 88 64
108 -8 21 -27 17 -62 -14z"/>
<path d="M11820 2955 c-16 -41 -12 -72 14 -121 13 -25 22 -53 19 -64 -3 -10
-24 -31 -46 -47 l-42 -28 -186 3 c-194 4 -262 -5 -273 -35 -11 -28 9 -36 116
-44 128 -11 203 -29 203 -49 0 -11 -13 -16 -45 -18 -70 -4 -247 -31 -275 -42
-27 -10 -33 -41 -12 -59 13 -10 26 -9 253 18 72 8 84 6 84 -20 0 -15 -28 -33
-124 -79 -135 -66 -156 -81 -136 -105 7 -8 20 -15 28 -15 20 0 169 61 235 96
38 21 51 23 62 14 35 -29 8 -87 -67 -144 -77 -59 -77 -116 0 -77 22 11 44 25
47 31 3 6 24 19 45 30 21 11 47 33 56 50 20 32 70 53 159 65 27 4 74 16 104
27 51 20 68 20 355 14 166 -4 325 -9 354 -12 l52 -6 0 214 0 215 -57 -8 c-129
-18 -376 -40 -511 -46 -141 -6 -143 -6 -168 18 -14 13 -32 36 -40 52 -8 15
-34 40 -58 55 -51 31 -85 71 -95 110 -10 37 -38 41 -51 7z"/>
<path d="M940 2673 c-19 -55 -38 -78 -89 -113 -28 -20 -60 -49 -70 -65 -40
-65 -50 -69 -179 -66 -103 2 -407 28 -551 47 l-51 7 0 -212 0 -211 48 0 c26 0
105 4 177 10 167 12 507 -2 590 -24 33 -9 86 -21 119 -27 51 -10 64 -17 104
-60 25 -27 50 -49 56 -49 6 0 31 -16 55 -36 45 -35 80 -41 89 -16 2 7 -28 44
-67 81 -59 56 -71 73 -71 100 0 44 23 50 79 19 25 -14 57 -29 71 -33 14 -4 53
-21 88 -37 71 -32 102 -30 102 7 0 21 -18 32 -135 89 -74 36 -135 69 -135 73
0 5 4 14 9 22 7 11 34 10 165 -4 87 -9 164 -14 172 -11 18 7 18 40 -1 56 -16
14 -263 52 -277 44 -16 -10 -58 6 -58 21 0 22 123 48 275 57 33 3 41 7 43 25
5 37 -32 43 -252 43 l-203 0 -42 30 c-23 17 -45 38 -48 46 -3 8 7 39 22 69 21
42 25 61 20 87 -13 61 -39 75 -55 31z"/>
<path d="M6536 2559 c-37 -32 -131 -206 -160 -295 -9 -28 -41 -91 -72 -139
-30 -48 -62 -101 -71 -118 -13 -26 -17 -28 -24 -14 -5 9 -14 42 -20 74 -17 91
-33 122 -75 139 -37 15 -83 12 -95 -7 -3 -6 10 -49 29 -97 27 -67 36 -103 37
-157 1 -58 24 -207 41 -265 2 -9 19 -39 38 -68 29 -45 38 -77 65 -215 50 -268
60 -339 76 -586 14 -211 34 -357 80 -601 8 -41 14 -105 15 -142 l0 -68 245 0
c135 0 245 3 245 8 0 4 -13 57 -29 117 -16 61 -32 149 -35 197 -9 136 -42 284
-113 518 -94 307 -110 377 -129 538 l-16 143 29 48 c17 26 42 80 58 121 34 90
85 147 169 194 229 125 251 141 225 172 -19 23 -57 16 -124 -21 -72 -40 -180
-85 -206 -85 -43 0 -26 33 64 123 114 114 217 233 217 251 0 15 -32 46 -47 46
-6 0 -41 -33 -80 -72 -99 -105 -239 -228 -258 -228 -35 0 -26 33 33 123 33 50
66 106 73 122 7 17 35 64 61 106 26 42 48 80 48 86 0 5 -9 18 -20 28 -16 14
-25 16 -43 8 -26 -12 -156 -194 -204 -285 -38 -73 -66 -103 -87 -95 -14 6 -13
15 10 74 14 37 34 91 44 118 9 28 34 81 54 118 41 79 43 92 17 107 -27 14 -26
14 -65 -21z"/>
<path d="M2525 2241 c-3 -11 -5 -64 -5 -118 2 -129 -8 -168 -40 -168 -26 0
-39 30 -92 215 -9 33 -19 46 -34 48 -41 6 -46 -18 -25 -124 11 -55 24 -112 30
-127 14 -37 14 -37 -7 -37 -25 0 -85 66 -116 128 -27 54 -60 70 -73 36 -9 -25
27 -122 69 -185 33 -49 38 -64 38 -115 0 -33 9 -104 19 -159 18 -91 19 -121
11 -340 -5 -132 -14 -287 -20 -345 -5 -58 -13 -295 -16 -527 l-7 -423 221 0
222 0 0 283 c0 256 -2 295 -25 422 -13 77 -34 172 -45 210 -20 66 -36 302 -41
581 -1 87 18 123 109 202 37 32 85 89 121 145 33 51 72 105 86 121 25 29 25
30 7 49 -18 18 -22 18 -50 3 -16 -8 -56 -45 -89 -82 -33 -37 -65 -65 -71 -63
-7 3 0 28 18 69 37 84 66 235 49 256 -29 35 -62 2 -87 -87 -10 -35 -30 -84
-46 -109 l-28 -45 5 33 c6 52 -11 243 -24 258 -17 21 -57 17 -64 -5z"/>
<path d="M5158 2193 c-6 -16 -14 -86 -17 -157 -4 -80 -10 -131 -17 -133 -12
-4 -24 91 -24 195 0 48 -3 62 -15 62 -25 0 -35 -36 -46 -153 -13 -150 -29
-260 -39 -271 -4 -4 -38 17 -74 48 -42 35 -75 56 -91 56 -43 0 -42 -3 138
-233 51 -65 96 -131 100 -145 4 -15 10 -115 12 -222 4 -146 1 -215 -10 -277
-28 -151 -42 -327 -32 -420 11 -121 5 -187 -27 -260 -15 -36 -30 -97 -36 -145
-6 -46 -12 -95 -15 -110 l-4 -28 229 0 229 0 -5 53 c-3 28 -12 99 -20 156 -11
75 -16 204 -18 465 l-2 361 -37 175 c-20 96 -37 195 -37 220 0 26 13 83 30
130 19 55 30 105 30 141 0 30 9 90 20 132 27 104 36 192 20 202 -19 12 -30 -7
-49 -81 -31 -119 -65 -158 -42 -47 7 32 13 103 14 158 2 93 1 100 -17 100 -17
0 -23 -17 -45 -132 -15 -72 -29 -134 -33 -138 -19 -19 -23 16 -18 154 3 83 4
156 2 161 -7 21 -43 9 -54 -17z"/>
<path d="M3313 2173 c-21 -8 -15 -55 13 -103 27 -45 112 -255 121 -297 4 -17
1 -23 -11 -23 -24 0 -53 33 -84 98 -28 56 -111 178 -173 255 -34 42 -63 46
-85 12 -11 -18 -9 -27 22 -75 20 -30 51 -86 71 -125 20 -38 58 -102 85 -141
52 -74 58 -107 23 -112 -15 -2 -63 39 -173 148 -84 82 -158 150 -165 150 -19
0 -37 -21 -37 -45 0 -22 98 -137 227 -267 52 -52 74 -81 70 -92 -4 -9 -12 -16
-19 -16 -24 0 -166 58 -209 86 -53 33 -91 44 -112 32 -41 -22 -5 -70 88 -115
108 -54 193 -107 226 -141 22 -24 47 -69 68 -122 18 -46 43 -99 57 -117 28
-38 30 -63 10 -224 -19 -147 -31 -200 -109 -454 -62 -202 -117 -419 -117 -464
0 -21 2 -21 235 -21 129 0 235 3 235 8 0 4 4 34 10 66 5 32 17 165 25 295 19
274 23 310 71 571 36 194 43 219 87 284 28 41 67 225 67 317 0 47 8 82 36 152
35 86 36 91 18 104 -24 17 -49 16 -90 -3 -36 -17 -55 -56 -74 -156 -6 -32 -16
-60 -21 -63 -5 -4 -9 -2 -9 3 0 5 -28 53 -62 107 -34 54 -76 135 -93 179 -49
123 -110 239 -148 280 -33 35 -47 40 -74 29z"/>
<path d="M7297 1928 c-23 -18 -47 -118 -48 -203 -1 -38 -4 -81 -8 -95 -9 -32
-41 -33 -57 -2 -6 12 -21 33 -33 46 -11 12 -28 45 -36 73 -17 56 -36 78 -61
69 -23 -9 -14 -81 21 -176 32 -88 32 -118 1 -202 -35 -91 -40 -159 -21 -248
24 -112 30 -320 16 -629 -6 -152 -12 -340 -14 -419 l-2 -142 217 0 218 0 0 28
c0 44 -45 268 -74 367 -21 69 -29 127 -36 250 -5 88 -14 215 -20 282 -5 67 -7
129 -3 139 6 17 68 47 135 64 27 7 54 24 73 44 42 48 150 123 185 131 41 9 38
33 -7 52 -35 14 -43 14 -108 -5 -38 -11 -78 -24 -87 -27 -15 -6 -18 -2 -18 23
0 50 19 132 50 212 43 112 74 234 66 265 -5 21 -12 26 -33 23 -24 -3 -31 -14
-65 -98 -21 -52 -43 -99 -50 -105 -8 -7 -9 -5 -4 9 4 11 11 38 16 61 5 23 15
55 21 71 6 16 17 50 24 76 15 56 3 82 -35 76 -20 -2 -31 -17 -56 -78 -127
-301 -128 -302 -121 -94 6 168 -1 195 -46 162z"/>
<path d="M10280 1849 c-9 -16 -3 -50 29 -169 23 -82 41 -154 41 -159 0 -6 -10
-11 -22 -11 -41 -1 -88 -53 -88 -98 0 -11 -18 -36 -41 -56 -48 -44 -104 -137
-114 -189 -6 -33 0 -52 58 -165 36 -70 68 -146 72 -170 9 -54 -8 -261 -46
-557 -16 -126 -29 -240 -29 -252 l0 -23 230 0 230 0 0 23 c0 12 -7 74 -16 137
-30 222 -13 554 40 769 22 87 38 264 27 292 -5 13 -28 42 -50 64 -31 29 -47
56 -62 104 -10 35 -23 69 -28 75 -5 6 -20 47 -34 91 -14 44 -44 119 -66 166
-23 48 -41 91 -41 96 0 17 -41 53 -60 53 -11 0 -24 -9 -30 -21z"/>
<path d="M9121 1847 c-18 -22 -31 -112 -31 -213 0 -82 -9 -118 -26 -101 -3 2
-6 60 -7 128 -3 107 -5 124 -20 127 -25 5 -37 -37 -48 -168 -13 -148 -28 -248
-40 -256 -5 -3 -37 20 -70 50 -45 42 -68 56 -90 56 -36 0 -37 -13 -1 -55 15
-19 41 -53 59 -77 18 -24 51 -67 75 -97 93 -116 98 -126 108 -186 14 -98 6
-416 -14 -535 -19 -105 -26 -304 -16 -447 l4 -73 162 0 162 0 2 309 1 308 -36
183 c-44 224 -48 315 -16 385 15 33 26 83 31 145 5 52 16 118 25 145 22 72 31
180 15 190 -18 11 -30 -7 -46 -74 -15 -64 -42 -127 -51 -118 -2 3 0 29 6 59
20 95 28 238 15 255 -20 29 -41 8 -49 -49 -14 -99 -41 -212 -53 -216 -9 -3
-11 37 -10 155 1 87 -2 164 -6 171 -9 16 -21 15 -35 -1z"/>
<path d="M12007 1846 c-7 -18 7 -71 27 -102 22 -32 30 -97 17 -123 -17 -31
-46 -26 -70 12 -11 18 -32 44 -46 57 -15 14 -47 51 -72 83 -37 48 -50 58 -72
55 -40 -5 -38 -37 6 -89 21 -24 63 -75 92 -113 48 -61 51 -70 38 -83 -17 -18
-5 -23 -194 94 -59 37 -108 61 -116 57 -25 -9 -29 -35 -10 -57 22 -24 173
-126 231 -156 43 -22 53 -38 28 -47 -18 -7 -121 20 -212 57 -85 33 -102 35
-111 13 -13 -35 70 -89 267 -171 107 -44 135 -65 160 -113 28 -54 26 -65 -21
-102 -46 -37 -69 -74 -69 -112 0 -40 18 -40 60 -2 22 20 41 36 43 36 43 1 135
27 179 50 l57 31 123 -64 c100 -52 328 -185 436 -255 l22 -14 0 220 0 220
-207 102 c-136 66 -222 114 -248 139 -22 21 -74 63 -116 94 -70 51 -77 58 -82
98 -3 23 -15 54 -26 68 -12 14 -28 42 -36 61 -28 62 -66 89 -78 56z"/>
<path d="M5801 1808 c-11 -12 -26 -37 -32 -57 -7 -20 -23 -58 -37 -86 -23 -46
-52 -122 -118 -309 -18 -51 -38 -84 -74 -122 -31 -33 -50 -62 -50 -76 0 -41
29 -251 39 -288 6 -19 20 -98 31 -175 30 -204 28 -477 -6 -662 l-6 -33 232 0
232 0 -6 38 c-42 270 -82 692 -72 755 4 23 35 95 69 161 49 95 62 128 60 160
-2 52 -57 152 -111 200 -27 24 -42 48 -47 72 -7 42 -48 84 -81 84 -13 0 -24 5
-24 11 0 5 18 77 41 159 32 119 38 153 29 169 -14 27 -44 27 -69 -1z"/>
<path d="M8105 1788 c-2 -7 -6 -56 -8 -108 -6 -118 -25 -175 -57 -175 -27 0
-40 37 -64 173 -17 94 -21 102 -45 102 -38 0 -43 -22 -31 -124 6 -53 16 -110
21 -128 11 -41 11 -48 0 -48 -25 0 -74 59 -106 126 -30 64 -39 75 -58 72 -12
-2 -23 -11 -25 -22 -5 -26 37 -151 65 -192 19 -29 23 -48 23 -112 0 -43 5
-115 10 -161 13 -97 -5 -317 -46 -596 -22 -149 -34 -254 -60 -527 l-7 -68 223
0 223 0 -6 138 c-4 75 -14 178 -22 227 -32 190 -34 233 -25 485 8 247 9 253
34 291 15 21 53 58 86 82 59 43 155 150 199 220 12 20 31 42 42 47 40 22 10
66 -36 54 -15 -4 -61 -38 -103 -77 -79 -74 -104 -76 -58 -7 31 47 79 206 74
247 -2 19 -9 29 -24 31 -27 4 -48 -22 -69 -88 -13 -41 -71 -150 -79 -150 -1 0
0 61 2 136 3 95 0 139 -8 150 -15 17 -59 19 -65 2z"/>
<path d="M10992 1728 c-17 -17 -15 -36 18 -198 22 -105 27 -147 19 -155 -8 -7
-13 -6 -16 2 -2 6 -18 32 -36 58 -18 25 -48 74 -68 108 -42 72 -60 87 -83 68
-31 -26 -13 -83 66 -218 26 -44 48 -86 48 -92 0 -23 -32 -28 -68 -9 -20 10
-42 18 -50 18 -7 0 -34 16 -59 35 -55 42 -93 47 -93 11 0 -26 40 -65 132 -131
61 -44 78 -72 103 -175 20 -80 49 -129 117 -200 94 -99 213 -271 373 -540 54
-91 118 -198 144 -237 l46 -73 259 0 c227 0 257 2 252 15 -20 54 -109 156
-271 311 -117 112 -207 208 -241 257 -30 43 -98 132 -150 198 -51 66 -94 127
-94 135 0 18 39 81 78 126 16 18 32 51 36 73 11 66 46 162 72 200 30 45 30 55
-1 55 -43 0 -81 -27 -130 -90 -25 -33 -48 -60 -51 -60 -13 0 -76 156 -89 222
-36 172 -89 287 -127 273 -26 -10 -27 -26 -7 -121 34 -166 13 -148 -37 31 -14
49 -30 96 -36 103 -13 15 -40 16 -56 0z"/>
<path d="M4461 1546 c-12 -14 -9 -47 19 -256 8 -52 7 -68 -5 -79 -21 -21 -30
-10 -101 132 -52 106 -64 122 -85 122 -36 0 -36 -38 0 -115 16 -36 39 -85 50
-110 11 -25 26 -52 32 -61 18 -24 4 -49 -28 -49 -38 0 -83 29 -113 73 -28 41
-61 62 -84 54 -20 -8 -6 -50 28 -87 13 -14 31 -40 40 -58 9 -18 32 -42 51 -55
29 -18 37 -32 50 -87 9 -36 25 -96 37 -135 20 -65 22 -95 24 -440 1 -203 2
-376 3 -382 1 -10 50 -13 211 -13 116 0 210 3 210 8 0 4 -5 34 -10 67 -20 127
-51 426 -57 555 l-5 135 52 39 c29 22 62 56 75 75 30 48 62 76 108 95 41 17
47 30 18 46 -33 17 -100 12 -132 -11 -42 -30 -76 -22 -111 27 l-29 40 -2 212
c-2 206 -3 212 -25 234 -23 23 -23 23 -38 4 -9 -12 -14 -45 -15 -85 0 -78 -22
-208 -37 -223 -19 -19 -29 1 -35 74 -8 100 -25 208 -38 241 -12 29 -39 36 -58
13z"/>
<path d="M541 1501 c-12 -16 -21 -33 -21 -38 0 -4 -13 -27 -29 -51 -16 -23
-32 -61 -36 -83 -6 -36 -16 -46 -101 -110 -52 -39 -100 -79 -107 -90 -8 -10
-66 -44 -130 -75 l-117 -56 0 -208 0 -209 100 59 c54 33 141 80 192 106 l93
47 60 -32 c33 -17 74 -32 90 -32 39 1 112 -33 142 -65 27 -30 43 -24 43 16 0
44 -19 77 -61 104 -52 35 -56 57 -22 112 31 52 43 59 233 145 131 59 190 98
190 126 0 27 -32 25 -113 -5 -45 -17 -108 -39 -141 -48 -52 -14 -60 -14 -73
-1 -14 14 -12 17 18 32 69 34 249 160 255 178 4 11 -1 26 -10 36 -19 18 -3 26
-179 -83 -165 -101 -187 -88 -81 49 36 46 69 87 75 90 5 4 16 19 24 35 13 26
13 30 -1 44 -23 23 -33 20 -68 -21 -17 -20 -54 -61 -82 -92 -27 -31 -58 -68
-67 -83 -21 -34 -42 -36 -62 -5 -19 29 -12 73 22 140 13 27 23 58 21 70 -5 33
-33 32 -57 -2z"/>
<path d="M1769 1450 c-8 -5 -24 -37 -34 -72 -9 -35 -28 -94 -41 -133 -20 -58
-24 -64 -24 -36 0 18 7 60 16 93 20 80 16 122 -13 126 -14 2 -27 -5 -37 -21
-23 -34 -64 -159 -83 -247 -16 -78 -75 -220 -91 -220 -5 0 -18 12 -27 27 -40
61 -97 113 -132 119 -50 9 -62 -8 -31 -45 27 -31 73 -150 83 -213 3 -21 21
-55 39 -77 60 -72 77 -106 67 -132 -5 -13 -47 -71 -93 -129 -46 -58 -109 -142
-141 -186 -52 -75 -109 -136 -242 -258 l-50 -46 232 0 231 0 32 57 c76 135
264 407 333 480 87 93 120 147 137 223 14 64 49 150 60 150 8 0 52 34 138 106
70 59 44 112 -29 60 -18 -14 -50 -33 -69 -42 -19 -9 -49 -23 -67 -31 -36 -17
-63 -12 -63 12 0 9 17 47 39 83 86 148 103 199 76 226 -23 23 -46 8 -80 -56
-15 -29 -40 -69 -55 -88 -15 -19 -35 -50 -44 -69 -13 -24 -21 -30 -29 -22 -8
8 -2 53 21 163 37 178 37 172 16 192 -18 18 -23 19 -45 6z"/>
<path d="M9816 1371 c-35 -39 -56 -117 -56 -210 0 -48 -3 -109 -6 -134 -6 -42
-9 -46 -50 -62 -24 -9 -49 -26 -55 -37 -11 -20 -8 -65 6 -100 4 -11 0 -18 -13
-22 -63 -20 -87 -109 -37 -142 22 -15 23 -18 10 -36 -18 -26 -10 -77 16 -100
13 -11 19 -30 19 -62 0 -54 24 -76 83 -76 23 0 40 -5 43 -14 14 -37 -63 -215
-142 -329 l-34 -47 184 0 185 0 10 52 c6 29 13 76 16 103 14 118 29 192 46
232 28 66 41 185 29 283 -5 47 -10 110 -10 140 0 96 -14 127 -70 155 -80 41
-107 100 -85 186 12 45 18 119 16 186 -2 49 -71 72 -105 34z"/>
<path d="M3956 1288 c-38 -59 -49 -104 -52 -213 -5 -161 -7 -169 -53 -187 -56
-22 -75 -55 -61 -107 11 -43 7 -61 -14 -61 -23 0 -56 -45 -56 -78 0 -32 29
-72 52 -72 6 0 4 -7 -5 -18 -23 -25 -21 -78 3 -102 13 -13 20 -33 20 -60 0
-59 36 -89 99 -81 38 6 41 -6 20 -81 -19 -67 -35 -102 -91 -195 l-20 -33 165
0 164 0 12 93 c17 125 25 162 52 232 18 48 23 80 23 160 0 153 -15 337 -29
361 -8 12 -34 31 -59 43 -34 15 -51 32 -67 63 -20 40 -21 48 -11 113 24 149
26 193 8 220 -22 34 -79 35 -100 3z"/>
<path d="M8610 1244 c-14 -35 -30 -141 -37 -237 -6 -77 -15 -99 -35 -79 -16
16 -37 136 -38 209 0 72 -13 113 -35 113 -35 0 -45 -61 -45 -261 l0 -192 -27
-44 c-35 -54 -61 -62 -110 -33 -45 27 -116 31 -140 8 -19 -20 -11 -35 25 -43
35 -8 73 -42 105 -92 14 -22 48 -57 76 -77 51 -38 51 -38 51 -94 0 -53 -10
-180 -26 -349 l-7 -73 189 0 189 0 3 228 c2 206 5 234 26 307 14 44 30 107 36
139 10 49 19 66 52 95 46 42 128 159 128 184 0 29 -41 19 -76 -19 -19 -19 -34
-39 -34 -44 0 -15 -66 -50 -94 -50 -40 0 -42 25 -8 93 98 194 110 242 62 242
-22 0 -33 -15 -88 -125 -59 -117 -81 -145 -103 -123 -9 9 -3 77 21 245 12 79
6 98 -26 98 -17 0 -28 -8 -34 -26z"/>
</g>
</svg>
